<svg xmlns="http://www.w3.org/2000/svg" width="361" height="97" viewBox="-0.122 -0.259 361 97" xml:space="preserve"><path opacity=".31" fill="none" stroke="#000" stroke-linecap="round" d="M332.295 37.132H51.378M332.295 16.466H51.378M332.294 13.466H51.378M332.294 83.8H51.378"/><path fill="none" stroke="#E32322" stroke-linecap="round" d="M332.295 65.466H51.378"/><path d="M118.327 66.368c-6.048 0-9.864-1.872-11.232-2.664-.864-1.584-1.8-6.696-1.944-10.08.36-.504 1.44-.648 1.728-.216 1.08 3.672 4.032 10.728 12.384 10.728 6.048 0 9-3.96 9-8.28 0-3.168-.648-6.696-5.904-10.08l-6.84-4.464c-3.6-2.376-7.776-6.48-7.776-12.384 0-6.84 5.328-12.384 14.688-12.384 2.232 0 4.824.432 6.696.936.936.288 1.944.432 2.52.432.648 1.728 1.296 5.76 1.296 8.784-.288.432-1.44.648-1.8.216-.936-3.456-2.88-8.136-9.792-8.136-7.056 0-8.568 4.68-8.568 7.992 0 4.176 3.456 7.2 6.12 8.856l5.76 3.6c4.536 2.808 9 6.984 9 13.824.001 7.92-5.975 13.32-15.336 13.32zM141.727 44.552c0-2.808 0-3.168-1.944-4.464l-.648-.432c-.288-.288-.288-1.08.072-1.296 1.872-.792 5.256-2.52 7.128-3.888.432 0 .72.144.864.504-.144 1.296-.288 2.376-.288 3.312 0 .504.144.936.648.936.936-.432 5.472-3.384 10.08-3.384 7.272 0 11.952 5.904 11.952 13.176 0 10.008-7.344 17.208-17.568 17.208-1.296 0-3.312-.144-3.96-.288-.648.144-1.008.504-1.008 2.016v7.56c0 5.112.144 5.761 2.736 6.12l2.808.359c.504.361.36 1.585-.144 1.801-3.456-.145-5.544-.216-8.064-.216-2.592 0-4.752.071-6.768.216-.504-.216-.648-1.439-.144-1.801l1.512-.215c2.664-.36 2.736-1.08 2.736-6.265V44.552zm5.328 13.392c0 2.304.72 3.168 2.16 4.32 1.44 1.08 3.672 1.584 5.184 1.584 5.904 0 9.36-5.472 9.36-12.96 0-5.76-3.24-11.592-9.72-11.592-3.096 0-5.328 1.152-6.12 2.016-.648.792-.864 1.872-.864 4.248v12.384zM178.446 24.607c0-4.248-.072-4.68-2.232-5.976l-.72-.432c-.36-.216-.36-1.224 0-1.44 1.8-.576 5.184-1.656 7.776-3.024.288 0 .576.144.72.432-.072 2.16-.216 5.76-.216 8.928v15.12c0 .648.072 1.224.288 1.368 2.592-2.016 6.048-3.744 9.72-3.744 6.84 0 9.288 4.248 9.288 9.288v12.024c0 5.184.144 5.976 2.736 6.264l1.944.216c.504.36.36 1.584-.144 1.8a122.01 122.01 0 0 0-7.2-.216c-2.592 0-4.752.072-6.696.216-.504-.216-.648-1.44-.144-1.8l1.44-.216c2.664-.432 2.736-1.08 2.736-6.264V46.855c0-4.608-2.232-7.704-6.84-7.704-2.448 0-4.32.864-5.616 1.944-1.296 1.08-1.512 1.44-1.512 3.96v12.096c0 5.184.144 5.904 2.736 6.264l1.512.216c.504.288.36 1.584-.144 1.8a98.224 98.224 0 0 0-6.768-.216c-2.592 0-4.752.072-7.056.216-.504-.216-.648-1.44-.144-1.8l1.8-.216c2.664-.288 2.736-1.08 2.736-6.264V24.607zM216.247 44.552c0-2.808 0-3.168-1.944-4.464l-.648-.432c-.288-.288-.288-1.08.072-1.296 1.656-.576 5.76-2.448 7.416-3.528.36 0 .648.144.72.432-.144 2.52-.288 5.976-.288 8.928v12.96c0 5.184.144 5.904 2.736 6.264l1.512.216c.504.36.36 1.584-.144 1.8a98.224 98.224 0 0 0-6.768-.216c-2.592 0-4.752.072-6.768.216-.504-.216-.648-1.44-.144-1.8l1.512-.216c2.664-.36 2.736-1.08 2.736-6.264v-12.6zm5.976-20.52c0 2.592-1.8 3.744-3.816 3.744-2.232 0-3.672-1.656-3.672-3.6 0-2.376 1.728-3.888 3.888-3.888s3.6 1.728 3.6 3.744zM234.75 44.552c0-2.808 0-3.168-1.944-4.464l-.648-.432c-.288-.288-.288-1.08.072-1.296 1.656-.576 5.76-2.448 7.2-3.528.288 0 .648.144.792.504-.144 1.656-.144 2.736-.144 3.384 0 .432.288.792.792.792 3.024-1.872 6.408-3.672 10.08-3.672 5.976 0 8.424 4.104 8.424 8.928v12.384c0 5.184.144 5.904 2.736 6.264l1.584.216c.504.36.36 1.584-.144 1.8a98.224 98.224 0 0 0-6.768-.216c-2.592 0-4.752.072-6.696.216-.504-.216-.648-1.44-.144-1.8l1.368-.216c2.664-.432 2.736-1.08 2.736-6.264V46.424c0-4.104-1.872-7.128-6.768-7.128-2.736 0-5.112 1.152-6.12 2.52-.936 1.224-1.08 2.232-1.08 4.32v11.016c0 5.184.144 5.832 2.736 6.264l1.296.216c.504.36.36 1.584-.144 1.8-1.944-.144-4.032-.216-6.552-.216-2.592 0-4.752.072-6.768.216-.504-.216-.648-1.44-.144-1.8l1.512-.216c2.664-.36 2.736-1.08 2.736-6.264v-12.6zM271.757 41.744c-1.08-1.584-2.304-2.736-4.32-3.096l-1.152-.216c-.432-.36-.36-1.584.144-1.8 2.808.144 4.464.216 6.264.216 1.728 0 3.312-.072 6.12-.216.504.288.504 1.44.072 1.8l-1.08.216c-1.944.36-1.872.792-.648 2.52l3.456 5.04c.288.432.72 1.008.936 1.224.288-.216 2.664-3.816 4.176-6.12 1.224-1.872 1.008-2.232-.576-2.664l-.864-.216c-.432-.432-.288-1.584.288-1.8 1.656.144 3.528.216 5.256.216 1.656 0 3.888-.072 5.256-.216.576.288.576 1.44.144 1.8l-1.08.216c-1.728.36-2.808.576-3.6 1.224-1.224 1.008-3.888 4.32-6.768 8.208-.864 1.152-.864 1.368.072 2.664l6.696 9.432c1.656 2.304 2.808 3.24 4.752 3.384l1.152.072c.432.432.36 1.584-.144 1.8-2.664-.144-5.04-.216-7.128-.216-2.664 0-4.536.072-6.84.216-.576-.216-.72-1.44-.216-1.8l2.088-.216c2.088-.216 2.16-.864 1.224-2.16l-3.744-5.4c-.864-1.296-1.296-1.872-1.584-2.088-.216.216-.792.936-1.296 1.728l-3.024 4.752c-1.44 2.304-1.584 2.88.216 3.168l1.224.216c.432.36.36 1.584-.144 1.8-1.8-.144-3.6-.216-5.328-.216-1.8 0-3.384.072-5.256.216-.576-.288-.648-1.512-.144-1.8l1.656-.288c1.296-.216 2.304-.792 3.6-2.16 1.512-1.584 4.752-6.408 6.408-8.424.648-.792.792-1.08.216-1.872l-6.48-9.144z"/><path fill="#E32322" d="M53.402 69.065v2.672h.023a1.27 1.27 0 0 1 .659-.625c.3-.13.629-.195.989-.195.399 0 .747.073 1.043.22.296.146.542.345.739.595s.345.538.444.865c.1.326.15.673.15 1.04 0 .366-.048.713-.145 1.039-.096.327-.243.611-.439.854s-.443.436-.739.575c-.296.14-.641.21-1.033.21-.127 0-.268-.014-.425-.04a2.313 2.313 0 0 1-.464-.13 1.842 1.842 0 0 1-.435-.245 1.371 1.371 0 0 1-.344-.385h-.023v.689h-.852v-7.14h.852zm3.054 3.806a1.88 1.88 0 0 0-.29-.614 1.409 1.409 0 0 0-.5-.43 1.523 1.523 0 0 0-.715-.16c-.286 0-.53.057-.729.17-.2.113-.363.262-.49.444a1.89 1.89 0 0 0-.275.625 2.964 2.964 0 0 0-.085.709c0 .253.03.498.09.734s.155.444.285.624c.13.18.298.325.505.435.207.11.457.165.75.165s.538-.057.735-.17.355-.263.475-.449c.12-.187.207-.399.26-.64s.08-.486.08-.739a2.698 2.698 0 0 0-.096-.704zM62.374 76.315c-.221 0-.397-.062-.528-.185-.131-.124-.196-.325-.196-.605-.233.28-.505.481-.815.605a2.7 2.7 0 0 1-1.005.185c-.233 0-.453-.025-.66-.075s-.389-.133-.545-.25a1.222 1.222 0 0 1-.37-.449 1.5 1.5 0 0 1-.135-.665c0-.293.05-.533.15-.72s.232-.338.396-.455c.163-.116.35-.205.561-.265.21-.06.425-.11.645-.15.233-.046.456-.081.666-.104s.395-.057.555-.1c.16-.044.287-.107.38-.19s.14-.205.14-.365c0-.187-.035-.336-.105-.449s-.16-.2-.27-.261c-.11-.06-.233-.1-.37-.119a2.657 2.657 0 0 0-.405-.03c-.359 0-.659.068-.899.204-.24.137-.37.394-.39.772h-.852c.013-.319.08-.589.2-.809s.28-.397.48-.534c.2-.136.431-.234.691-.294s.534-.09.82-.09c.233 0 .465.017.696.05.23.033.438.102.625.205.187.104.337.248.45.435.114.187.17.43.17.729v2.658c0 .199.012.346.035.439.023.093.102.14.235.14.073 0 .16-.017.26-.05v.662c-.147.086-.35.13-.61.13zm-1.192-2.607a6.61 6.61 0 0 1-.546.091c-.19.022-.383.05-.576.079-.194.03-.368.079-.521.146a.95.95 0 0 0-.376.285c-.097.123-.145.291-.145.505 0 .14.028.258.085.354.057.097.13.176.22.235s.197.104.321.13.249.04.376.04c.28 0 .521-.038.722-.115.2-.076.364-.173.491-.29.127-.116.22-.243.28-.38s.09-.265.09-.385v-.87c-.107.08-.248.139-.421.175zM64.373 75.049c.08.13.184.232.314.31.129.076.276.132.439.165.163.033.331.05.503.05.133 0 .272-.01.419-.03.146-.02.281-.057.404-.109a.769.769 0 0 0 .304-.235.624.624 0 0 0 .12-.395c0-.22-.083-.386-.25-.499s-.375-.205-.625-.275c-.25-.069-.521-.133-.813-.189s-.564-.137-.814-.24-.458-.248-.624-.435-.25-.446-.25-.779c0-.26.058-.483.175-.669.117-.188.267-.339.45-.455s.39-.203.62-.26a2.83 2.83 0 0 1 .685-.085c.293 0 .562.025.809.075s.464.137.655.26c.189.123.341.289.454.498.113.21.18.472.2.784h-.852a.862.862 0 0 0-.13-.413.861.861 0 0 0-.279-.265 1.312 1.312 0 0 0-.375-.145 1.916 1.916 0 0 0-.414-.045c-.126 0-.255.01-.385.03-.13.02-.248.055-.354.104s-.193.117-.26.2a.506.506 0 0 0-.1.325c0 .146.052.268.155.364s.235.177.395.24.339.116.539.16c.2.043.399.088.599.135.213.047.421.104.624.17s.383.155.539.265c.157.11.283.249.38.415.096.167.145.373.145.62 0 .312-.065.573-.195.779-.13.207-.299.373-.509.5a2.116 2.116 0 0 1-.708.265c-.263.05-.524.075-.784.075-.286 0-.56-.03-.819-.09-.259-.061-.489-.159-.689-.296s-.359-.316-.479-.54-.187-.496-.2-.816h.852a.945.945 0 0 0 .129.476zM72.33 75.875c-.387.294-.874.44-1.46.44-.414 0-.772-.066-1.076-.2a2.11 2.11 0 0 1-.765-.56 2.367 2.367 0 0 1-.465-.859 4.144 4.144 0 0 1-.175-1.09c0-.394.06-.753.18-1.08.12-.326.289-.609.505-.85s.474-.427.771-.56c.297-.134.622-.2.976-.2.46 0 .842.095 1.146.285.303.19.547.432.73.726.183.293.31.613.38.96s.098.677.085.99h-3.875c-.007.226.02.44.08.644.06.202.157.382.29.538.134.156.304.281.511.374s.451.14.731.14c.36 0 .656-.083.886-.249.23-.167.382-.42.456-.759h.84c-.115.581-.365 1.017-.751 1.31zm-.202-3.317a1.47 1.47 0 0 0-.311-.466 1.452 1.452 0 0 0-1.047-.425c-.221 0-.419.038-.597.115a1.373 1.373 0 0 0-.456.315 1.487 1.487 0 0 0-.3.465 1.746 1.746 0 0 0-.13.565h2.977a1.749 1.749 0 0 0-.136-.569zM74.888 69.065v7.141h-.852v-7.141h.852zM76.206 70.104v-1.039h.852v1.039h-.852zm.852.932v5.17h-.852v-5.17h.852zM79.13 71.037v.819h.019c.354-.626.914-.939 1.681-.939.34 0 .623.047.85.14a1.4 1.4 0 0 1 .55.391c.14.166.238.364.295.595.057.229.085.484.085.765v3.399h-.852v-3.499c0-.32-.093-.573-.28-.76s-.443-.28-.77-.28c-.26 0-.485.04-.674.12-.19.08-.348.193-.475.34a1.446 1.446 0 0 0-.285.515 2.11 2.11 0 0 0-.095.646v2.919h-.852v-5.169h.803zM87.499 75.875c-.387.294-.874.44-1.46.44-.414 0-.772-.066-1.075-.2a2.105 2.105 0 0 1-.766-.56 2.367 2.367 0 0 1-.465-.859 4.103 4.103 0 0 1-.175-1.09c0-.394.06-.753.18-1.08.12-.326.289-.609.505-.85s.474-.427.771-.56c.297-.134.622-.2.976-.2.46 0 .842.095 1.146.285s.547.432.73.726c.184.293.31.613.38.96s.098.677.085.99h-3.875c-.007.226.02.44.08.644a1.427 1.427 0 0 0 .801.912c.207.093.451.14.731.14.36 0 .655-.083.886-.249.23-.167.382-.42.456-.759h.84c-.114.581-.364 1.017-.751 1.31zm-.202-3.317a1.47 1.47 0 0 0-.311-.466 1.456 1.456 0 0 0-1.047-.425c-.221 0-.419.038-.596.115a1.373 1.373 0 0 0-.456.315 1.49 1.49 0 0 0-.301.465 1.746 1.746 0 0 0-.13.565h2.977a1.749 1.749 0 0 0-.136-.569z"/><path d="m56.285 94.638.002-.699h-.025c-.14.286-.359.493-.659.619-.3.127-.629.19-.989.19-.399 0-.747-.073-1.043-.22a2.143 2.143 0 0 1-.738-.59 2.563 2.563 0 0 1-.444-.86c-.1-.326-.15-.673-.15-1.039s.048-.713.145-1.04c.096-.326.243-.611.439-.854s.443-.437.739-.58.641-.215 1.033-.215c.133 0 .276.014.43.04.153.026.306.072.459.135.153.063.298.146.435.25.136.104.251.232.344.385h.023v-2.661h.852v7.14h-.853zm-3.053-1.836c.063.23.16.435.29.615.13.18.297.322.5.429.204.106.442.16.715.16.286 0 .53-.057.729-.17.2-.113.363-.262.49-.444a1.89 1.89 0 0 0 .275-.625c.057-.232.085-.469.085-.709 0-.253-.03-.498-.09-.734s-.155-.444-.285-.624-.298-.325-.505-.435a1.58 1.58 0 0 0-.75-.165c-.287 0-.53.057-.73.17s-.36.263-.48.449c-.12.187-.207.399-.26.64s-.08.486-.08.739c.001.24.032.474.096.704zM62.06 94.308c-.387.294-.874.44-1.46.44-.414 0-.772-.066-1.075-.2a2.105 2.105 0 0 1-.766-.56 2.367 2.367 0 0 1-.465-.859 4.103 4.103 0 0 1-.175-1.09c0-.394.06-.753.18-1.08.12-.326.289-.609.505-.85s.474-.427.771-.56c.297-.134.622-.2.976-.2.46 0 .842.095 1.146.285s.547.432.73.726c.184.293.31.613.38.96s.098.677.085.99h-3.875c-.007.226.02.44.08.644a1.427 1.427 0 0 0 .801.912c.207.093.451.14.731.14.36 0 .655-.083.886-.249.23-.167.382-.42.456-.759h.84c-.115.58-.365 1.017-.751 1.31zm-.202-3.318a1.47 1.47 0 0 0-.311-.466 1.478 1.478 0 0 0-.461-.31 1.472 1.472 0 0 0-.586-.114c-.221 0-.419.038-.596.115a1.373 1.373 0 0 0-.456.315 1.49 1.49 0 0 0-.301.465 1.746 1.746 0 0 0-.13.565h2.977a1.755 1.755 0 0 0-.136-.57zM64.373 93.481c.08.13.184.232.314.31.129.076.276.132.439.165.163.033.331.05.503.05.133 0 .272-.01.419-.03.146-.02.281-.057.404-.109a.769.769 0 0 0 .304-.235.624.624 0 0 0 .12-.395c0-.22-.083-.386-.25-.499s-.375-.205-.625-.275c-.25-.069-.521-.133-.813-.189s-.564-.137-.814-.24-.458-.248-.624-.435-.25-.446-.25-.779c0-.26.058-.483.175-.669.117-.188.267-.339.45-.455s.39-.203.62-.26a2.83 2.83 0 0 1 .685-.085c.293 0 .562.025.809.075s.464.137.655.26c.189.123.341.289.454.498.113.21.18.472.2.784h-.852a.862.862 0 0 0-.13-.413.861.861 0 0 0-.279-.265 1.312 1.312 0 0 0-.375-.145 1.916 1.916 0 0 0-.414-.045c-.126 0-.255.01-.385.03-.13.02-.248.055-.354.104s-.193.117-.26.2a.506.506 0 0 0-.1.325c0 .146.052.268.155.364s.235.177.395.24.339.116.539.16c.2.043.399.088.599.135.213.047.421.104.624.17s.383.155.539.265c.157.11.283.249.38.415.096.167.145.373.145.62 0 .312-.065.573-.195.779-.13.207-.299.373-.509.5a2.116 2.116 0 0 1-.708.265c-.263.05-.524.075-.784.075-.286 0-.56-.03-.819-.09-.259-.061-.489-.159-.689-.296s-.359-.316-.479-.54-.187-.496-.2-.816h.852a.942.942 0 0 0 .129.476zM71.756 90.37c-.213-.181-.5-.271-.86-.271-.307 0-.563.057-.77.17a1.368 1.368 0 0 0-.495.449 1.91 1.91 0 0 0-.265.645c-.054.243-.08.495-.08.755 0 .239.028.473.085.699s.145.428.265.604c.12.177.276.318.47.425s.423.16.69.16c.42 0 .749-.109.985-.329.236-.22.381-.529.435-.929h.87c-.093.64-.332 1.134-.715 1.479-.383.348-.905.521-1.565.521-.394 0-.742-.063-1.045-.19a2.02 2.02 0 0 1-.76-.539c-.203-.233-.356-.512-.459-.835s-.155-.679-.155-1.064c0-.387.05-.748.149-1.085.1-.337.251-.63.455-.88.203-.25.458-.446.764-.59s.664-.215 1.07-.215c.293 0 .568.035.825.105.256.069.483.179.68.325s.358.332.485.555c.127.224.207.489.24.796h-.88c-.065-.327-.205-.581-.419-.761zM77.649 94.308c-.387.294-.874.44-1.46.44-.414 0-.772-.066-1.075-.2a2.105 2.105 0 0 1-.766-.56 2.367 2.367 0 0 1-.465-.859 4.103 4.103 0 0 1-.175-1.09c0-.394.06-.753.18-1.08.12-.326.289-.609.505-.85s.474-.427.771-.56c.297-.134.622-.2.976-.2.46 0 .842.095 1.146.285s.547.432.73.726c.184.293.31.613.38.96s.098.677.085.99h-3.875c-.007.226.02.44.08.644a1.427 1.427 0 0 0 .801.912c.207.093.451.14.731.14.36 0 .655-.083.886-.249.23-.167.382-.42.456-.759h.84c-.114.58-.364 1.017-.751 1.31zm-.201-3.318a1.47 1.47 0 0 0-.311-.466 1.456 1.456 0 0 0-1.047-.425c-.221 0-.419.038-.596.115a1.373 1.373 0 0 0-.456.315 1.49 1.49 0 0 0-.301.465 1.746 1.746 0 0 0-.13.565h2.977a1.781 1.781 0 0 0-.136-.569zM80.111 89.47v.819h.019c.354-.626.914-.939 1.681-.939.34 0 .623.047.85.14a1.4 1.4 0 0 1 .55.391c.14.166.238.364.295.595.057.229.085.484.085.765v3.399h-.852v-3.5c0-.32-.093-.573-.28-.76s-.443-.28-.77-.28c-.26 0-.485.04-.674.12-.19.08-.348.193-.475.34a1.446 1.446 0 0 0-.285.515 2.11 2.11 0 0 0-.095.646v2.919h-.852v-5.17h.803zM88.584 94.638l.002-.699h-.025c-.14.286-.359.493-.659.619-.299.127-.629.19-.988.19-.399 0-.747-.073-1.043-.22a2.147 2.147 0 0 1-.739-.59 2.581 2.581 0 0 1-.444-.86c-.1-.326-.15-.673-.15-1.039s.048-.713.145-1.04c.097-.326.243-.611.439-.854s.442-.437.739-.58.641-.215 1.034-.215c.133 0 .276.014.429.04.153.026.307.072.459.135.153.063.298.146.434.25.137.104.251.232.345.385h.023v-2.661h.852v7.14h-.853zm-3.053-1.836c.063.23.16.435.29.615.13.18.297.322.5.429.204.106.442.16.715.16.287 0 .53-.057.73-.17.2-.113.363-.262.49-.444a1.89 1.89 0 0 0 .275-.625c.057-.232.085-.469.085-.709 0-.253-.03-.498-.09-.734s-.155-.444-.285-.624-.298-.325-.505-.435a1.58 1.58 0 0 0-.75-.165c-.287 0-.53.057-.73.17s-.36.263-.48.449-.207.399-.26.64c-.054.24-.08.486-.08.739 0 .24.032.474.095.704zM94.359 94.308c-.387.294-.874.44-1.46.44-.414 0-.772-.066-1.076-.2a2.11 2.11 0 0 1-.765-.56 2.367 2.367 0 0 1-.465-.859 4.144 4.144 0 0 1-.175-1.09c0-.394.06-.753.18-1.08.12-.326.289-.609.505-.85s.474-.427.771-.56c.297-.134.622-.2.976-.2.46 0 .842.095 1.146.285.303.19.547.432.73.726.183.293.31.613.38.96s.098.677.085.99h-3.875c-.007.226.02.44.08.644.06.202.157.382.29.538.134.156.304.281.511.374s.451.14.731.14c.36 0 .656-.083.886-.249.23-.167.382-.42.456-.759h.84c-.114.58-.364 1.017-.751 1.31zm-.202-3.318a1.47 1.47 0 0 0-.311-.466 1.452 1.452 0 0 0-1.047-.425c-.221 0-.419.038-.597.115a1.373 1.373 0 0 0-.456.315 1.487 1.487 0 0 0-.3.465 1.746 1.746 0 0 0-.13.565h2.977a1.755 1.755 0 0 0-.136-.569zM96.792 89.47v1.09h.019c.205-.42.458-.73.758-.93.3-.2.68-.294 1.14-.28v.898c-.34 0-.63.047-.87.14a1.38 1.38 0 0 0-.58.41 1.715 1.715 0 0 0-.32.655c-.067.257-.1.552-.1.886v2.3h-.852V89.47h.805zM102.88 87.498v2.73h.023c.066-.16.16-.295.28-.404.12-.11.254-.2.404-.27.15-.07.307-.122.47-.155s.321-.05.474-.05c.34 0 .623.047.85.14.226.094.409.224.549.391.14.166.238.364.295.595.057.229.085.484.085.765v3.399h-.852V91.14c0-.32-.093-.573-.28-.76s-.443-.28-.77-.28c-.26 0-.485.04-.674.12-.19.08-.348.193-.475.34a1.446 1.446 0 0 0-.285.515 2.11 2.11 0 0 0-.095.646v2.919h-.852v-7.141h.853zM111.199 94.308c-.387.294-.874.44-1.46.44-.414 0-.772-.066-1.076-.2a2.11 2.11 0 0 1-.765-.56 2.367 2.367 0 0 1-.465-.859 4.144 4.144 0 0 1-.175-1.09c0-.394.06-.753.18-1.08.12-.326.289-.609.505-.85s.474-.427.771-.56c.297-.134.622-.2.976-.2.46 0 .842.095 1.146.285.303.19.547.432.73.726.183.293.31.613.38.96s.098.677.085.99h-3.875c-.007.226.02.44.08.644.06.202.157.382.29.538.134.156.304.281.511.374s.451.14.731.14c.36 0 .656-.083.886-.249.23-.167.382-.42.456-.759h.84c-.115.58-.365 1.017-.751 1.31zm-.202-3.318a1.47 1.47 0 0 0-.311-.466 1.452 1.452 0 0 0-1.047-.425c-.221 0-.419.038-.597.115a1.373 1.373 0 0 0-.456.315 1.487 1.487 0 0 0-.3.465 1.746 1.746 0 0 0-.13.565h2.977a1.755 1.755 0 0 0-.136-.569zM112.905 88.537v-1.039h.852v1.039h-.852zm.852.932v5.17h-.852v-5.17h.852zM118.909 96.103c-.386.42-.993.63-1.819.63-.24 0-.485-.026-.735-.08s-.477-.14-.68-.26a1.566 1.566 0 0 1-.505-.47 1.327 1.327 0 0 1-.22-.71h.852c.006.153.055.283.145.39s.2.193.33.26.271.115.425.146.3.045.44.045c.28 0 .517-.048.71-.145s.354-.23.48-.4a1.67 1.67 0 0 0 .275-.614c.057-.24.085-.504.085-.79v-.34h-.02a1.435 1.435 0 0 1-.666.705 2.082 2.082 0 0 1-.946.225c-.387 0-.724-.07-1.011-.21a2.141 2.141 0 0 1-.721-.565 2.425 2.425 0 0 1-.436-.831 3.408 3.408 0 0 1-.145-1.006c0-.307.04-.621.12-.945.08-.323.213-.617.401-.881a2.21 2.21 0 0 1 .741-.65c.307-.17.684-.255 1.132-.255.327 0 .627.071.901.215.274.144.487.358.641.646h.01v-.74h.797v4.731c-.001.844-.194 1.478-.581 1.899zm-1.083-2.327a1.4 1.4 0 0 0 .476-.461c.121-.189.209-.404.266-.645.057-.24.085-.48.085-.721 0-.227-.027-.45-.08-.67-.054-.221-.139-.419-.256-.596s-.269-.318-.456-.425-.415-.16-.682-.16c-.274 0-.508.052-.702.155s-.353.242-.476.415a1.746 1.746 0 0 0-.271.601 2.9 2.9 0 0 0-.085.71c0 .233.023.467.07.7.046.233.127.445.241.635.113.19.264.344.451.461.187.116.421.175.702.175s.52-.057.717-.174zM121.57 87.498v2.73h.023c.066-.16.16-.295.28-.404.12-.11.254-.2.404-.27.15-.07.307-.122.47-.155s.321-.05.474-.05c.34 0 .623.047.85.14.226.094.409.224.549.391.14.166.238.364.295.595.057.229.085.484.085.765v3.399h-.852V91.14c0-.32-.093-.573-.28-.76s-.443-.28-.77-.28c-.26 0-.485.04-.674.12-.19.08-.348.193-.475.34a1.446 1.446 0 0 0-.285.515 2.11 2.11 0 0 0-.095.646v2.919h-.852v-7.141h.853zM128.439 89.467v.75h-1.031v3.212c0 .1.008.18.025.24a.25.25 0 0 0 .095.14.422.422 0 0 0 .195.065c.083.01.192.015.325.015h.391v.75h-.65c-.22 0-.409-.015-.566-.045-.156-.03-.283-.085-.38-.165s-.169-.193-.215-.34a1.962 1.962 0 0 1-.07-.581l-.001-3.291h-.88v-.75h.88V87.92h.852v1.547h1.03zM53.321 43.137v.76h.019c.387-.587.945-.88 1.672-.88.32 0 .61.066.871.2.26.133.444.359.551.68.173-.279.402-.496.686-.649s.596-.23.936-.23c.26 0 .496.028.706.085.21.057.391.145.541.265.15.12.267.275.351.466a1.7 1.7 0 0 1 .125.685v3.789h-.852v-3.39c0-.159-.013-.31-.04-.449a.92.92 0 0 0-.15-.365.744.744 0 0 0-.306-.245c-.13-.06-.298-.09-.505-.09-.42 0-.751.12-.991.36-.24.239-.36.56-.36.959v3.22h-.852v-3.39c0-.166-.015-.319-.045-.46-.03-.14-.082-.261-.155-.364s-.172-.184-.295-.24a1.138 1.138 0 0 0-.475-.085c-.247 0-.458.05-.635.15a1.444 1.444 0 0 0-.746 1.169v3.22h-.852v-5.169h.801zM64.66 47.975c-.387.294-.874.44-1.46.44-.414 0-.772-.066-1.076-.2a2.11 2.11 0 0 1-.765-.56 2.367 2.367 0 0 1-.465-.859 4.144 4.144 0 0 1-.175-1.09c0-.394.06-.753.18-1.08.12-.326.289-.609.505-.85s.474-.427.771-.56c.297-.134.622-.2.976-.2.46 0 .842.095 1.146.285.303.19.547.432.73.726.183.293.31.613.38.96s.098.677.085.99h-3.875c-.007.226.02.44.08.644.06.202.157.382.29.538.134.156.304.281.511.374s.451.14.731.14c.36 0 .656-.083.886-.249.23-.167.382-.42.456-.759h.84c-.115.581-.365 1.017-.751 1.31zm-.202-3.317a1.47 1.47 0 0 0-.311-.466 1.452 1.452 0 0 0-1.047-.425c-.221 0-.419.038-.597.115a1.373 1.373 0 0 0-.456.315 1.487 1.487 0 0 0-.3.465 1.746 1.746 0 0 0-.13.565h2.977a1.749 1.749 0 0 0-.136-.569zM70.085 48.305l.002-.699h-.025c-.14.286-.359.493-.659.619-.3.127-.629.19-.989.19-.399 0-.747-.073-1.043-.22a2.143 2.143 0 0 1-.738-.59 2.563 2.563 0 0 1-.444-.86c-.1-.326-.15-.673-.15-1.039s.048-.713.145-1.04c.096-.326.243-.611.439-.854s.443-.437.739-.58.641-.215 1.033-.215c.133 0 .276.014.43.04.153.026.306.072.459.135.153.063.298.146.435.25.136.104.251.232.344.385h.023v-2.661h.852v7.14h-.853zm-3.053-1.836c.063.23.16.435.29.615.13.18.297.322.5.429.204.106.442.16.715.16.286 0 .53-.057.729-.17.2-.113.363-.262.49-.444a1.89 1.89 0 0 0 .275-.625c.057-.232.085-.469.085-.709 0-.253-.03-.498-.09-.734s-.155-.444-.285-.624-.298-.325-.505-.435a1.58 1.58 0 0 0-.75-.165c-.287 0-.53.057-.73.17s-.36.263-.48.449c-.12.187-.207.399-.26.64s-.08.486-.08.739c.001.24.032.475.096.704zM72.246 42.205v-1.039h.852v1.039h-.852zm.852.931v5.17h-.852v-5.17h.852zM78.343 48.416c-.221 0-.397-.062-.528-.185-.131-.124-.196-.325-.196-.605-.233.28-.505.481-.815.605a2.7 2.7 0 0 1-1.005.185c-.233 0-.453-.025-.66-.075s-.389-.133-.545-.25a1.222 1.222 0 0 1-.37-.449 1.5 1.5 0 0 1-.135-.665c0-.293.05-.533.15-.72s.232-.338.396-.455c.163-.116.35-.205.561-.265.21-.06.425-.11.645-.15.233-.046.456-.081.666-.104s.395-.057.555-.1c.16-.044.287-.107.38-.19s.14-.205.14-.365c0-.187-.035-.336-.105-.449s-.16-.2-.27-.261c-.11-.06-.233-.1-.37-.119a2.657 2.657 0 0 0-.405-.03c-.359 0-.659.068-.899.204-.24.137-.37.394-.39.772h-.852c.013-.319.08-.589.2-.809s.28-.397.48-.534c.2-.136.431-.234.691-.294s.534-.09.82-.09c.233 0 .465.017.696.05.23.033.438.102.625.205.187.104.337.248.45.435.114.187.17.43.17.729v2.658c0 .199.012.346.035.439.023.093.102.14.235.14.073 0 .16-.017.26-.05v.662c-.146.086-.349.13-.61.13zm-1.192-2.608a6.61 6.61 0 0 1-.546.091c-.19.022-.383.05-.576.079-.194.03-.368.079-.521.146a.95.95 0 0 0-.376.285c-.097.123-.145.291-.145.505 0 .14.028.258.085.354.057.097.13.176.22.235s.197.104.321.13.249.04.376.04c.28 0 .521-.038.722-.115.2-.076.364-.173.491-.29.127-.116.22-.243.28-.38s.09-.265.09-.385v-.87c-.107.08-.247.139-.421.175zM80.491 43.137v.819h.019c.354-.626.914-.939 1.681-.939.34 0 .623.047.85.14a1.4 1.4 0 0 1 .55.391c.14.166.238.364.295.595.057.229.085.484.085.765v3.399h-.852v-3.499c0-.32-.093-.573-.28-.76s-.443-.28-.77-.28c-.26 0-.485.04-.674.12-.19.08-.348.193-.475.34a1.446 1.446 0 0 0-.285.515 2.11 2.11 0 0 0-.095.646v2.919h-.852v-5.169h.803zM55.607 23.205c-.214-.181-.5-.271-.86-.271-.307 0-.563.057-.77.17s-.372.263-.495.449c-.124.187-.212.401-.265.645s-.08.495-.08.755c0 .239.028.473.085.699s.145.428.265.604c.12.177.276.318.47.425s.423.16.69.16c.42 0 .748-.109.985-.329.236-.22.381-.529.435-.929h.87c-.094.64-.332 1.134-.715 1.479-.383.348-.905.521-1.565.521-.394 0-.742-.063-1.045-.19-.304-.126-.557-.306-.76-.539s-.356-.512-.459-.835a3.463 3.463 0 0 1-.155-1.064c0-.387.05-.748.15-1.085.1-.337.251-.63.454-.88s.458-.446.765-.59.663-.215 1.07-.215c.293 0 .568.035.825.105.257.069.483.179.68.325s.358.332.485.555c.127.224.207.489.24.796h-.88c-.067-.327-.207-.581-.42-.761zM61.813 27.583c-.221 0-.397-.062-.528-.185-.131-.124-.196-.325-.196-.605-.233.28-.505.481-.815.605a2.7 2.7 0 0 1-1.005.185c-.233 0-.454-.025-.66-.075s-.388-.133-.545-.25a1.232 1.232 0 0 1-.37-.449 1.5 1.5 0 0 1-.135-.665c0-.293.05-.533.15-.72s.232-.338.396-.455c.164-.116.35-.205.56-.265.21-.06.425-.11.646-.15.233-.046.455-.081.666-.104.21-.023.395-.057.555-.1.16-.044.287-.107.38-.19s.14-.205.14-.365c0-.187-.035-.336-.105-.449s-.16-.2-.27-.261c-.11-.06-.233-.1-.37-.119a2.657 2.657 0 0 0-.405-.03c-.359 0-.659.068-.899.204-.24.137-.37.394-.39.772h-.852c.013-.319.08-.589.2-.809s.28-.397.48-.534c.2-.136.43-.234.69-.294.26-.06.534-.09.82-.09.233 0 .465.017.695.05.23.033.439.102.625.205.187.104.337.248.451.435.113.187.17.43.17.729v2.658c0 .199.012.346.035.439.023.093.102.14.235.14.073 0 .16-.017.26-.05v.662c-.145.086-.348.13-.609.13zm-1.191-2.607a6.61 6.61 0 0 1-.546.091c-.19.022-.382.05-.576.079-.194.03-.368.079-.521.146s-.279.162-.375.285c-.097.123-.146.291-.146.505 0 .14.028.258.085.354.057.097.13.176.221.235s.197.104.321.13.249.04.376.04c.28 0 .521-.038.721-.115.201-.076.364-.173.491-.29.127-.116.221-.243.281-.38s.09-.265.09-.385v-.87c-.108.08-.249.138-.422.175zM64.042 22.305v.699h.023c.14-.286.359-.494.659-.624.3-.13.629-.195.989-.195.399 0 .747.073 1.043.22.296.146.542.345.739.595s.345.538.444.865c.1.326.15.673.15 1.04 0 .366-.048.713-.145 1.039-.096.327-.243.611-.439.854s-.443.436-.739.575c-.296.14-.641.21-1.033.21-.127 0-.268-.014-.425-.04a2.313 2.313 0 0 1-.464-.13 1.842 1.842 0 0 1-.435-.245 1.371 1.371 0 0 1-.344-.385h-.023v2.659h-.852v-7.138h.852zm3.053 1.834a1.88 1.88 0 0 0-.29-.614 1.409 1.409 0 0 0-.5-.43 1.523 1.523 0 0 0-.715-.16c-.286 0-.53.057-.729.17-.2.113-.363.262-.49.444a1.89 1.89 0 0 0-.275.625 2.964 2.964 0 0 0-.085.709c0 .253.03.498.09.734s.155.444.285.624c.13.18.298.325.505.435.207.11.457.165.75.165s.538-.057.735-.17.355-.263.475-.449c.12-.187.207-.399.26-.64s.08-.486.08-.739a2.65 2.65 0 0 0-.096-.704zM72.621 20.333v2.73h.023c.066-.16.16-.295.28-.404.12-.11.254-.2.404-.27.15-.07.307-.122.47-.155s.321-.05.474-.05c.34 0 .623.047.85.14.226.094.409.224.549.391.14.166.238.364.295.595.057.229.085.484.085.765v3.399h-.852v-3.499c0-.32-.093-.573-.28-.76s-.443-.28-.77-.28c-.26 0-.485.04-.674.12-.19.08-.348.193-.475.34a1.446 1.446 0 0 0-.285.515 2.11 2.11 0 0 0-.095.646v2.919h-.852v-7.141h.853zM80.939 27.143c-.387.294-.874.44-1.46.44-.414 0-.772-.066-1.075-.2a2.105 2.105 0 0 1-.766-.56 2.367 2.367 0 0 1-.465-.859 4.103 4.103 0 0 1-.175-1.09c0-.394.06-.753.18-1.08.12-.326.289-.609.505-.85s.474-.427.771-.56c.297-.134.622-.2.976-.2.46 0 .842.095 1.146.285s.547.432.73.726c.184.293.31.613.38.96s.098.677.085.99h-3.875c-.007.226.02.44.08.644a1.427 1.427 0 0 0 .801.912c.207.093.451.14.731.14.36 0 .655-.083.886-.249.23-.167.382-.42.456-.759h.84c-.114.58-.364 1.017-.751 1.31zm-.201-3.318a1.47 1.47 0 0 0-.311-.466 1.456 1.456 0 0 0-1.047-.425c-.221 0-.419.038-.596.115a1.373 1.373 0 0 0-.456.315 1.49 1.49 0 0 0-.301.465 1.746 1.746 0 0 0-.13.565h2.977a1.781 1.781 0 0 0-.136-.569zM82.646 21.372v-1.039h.852v1.039h-.852zm.852.932v5.17h-.852v-5.17h.852zM88.65 28.938c-.387.42-.993.63-1.819.63-.24 0-.485-.026-.735-.08s-.477-.14-.68-.26a1.587 1.587 0 0 1-.505-.47 1.335 1.335 0 0 1-.22-.71h.852a.632.632 0 0 0 .145.39c.09.106.2.193.33.26s.272.115.425.146.3.045.44.045c.28 0 .517-.048.71-.145s.354-.23.48-.4c.127-.17.219-.375.275-.614.057-.24.085-.504.085-.79v-.34h-.02a1.435 1.435 0 0 1-.666.705 2.082 2.082 0 0 1-.946.225c-.387 0-.724-.07-1.011-.21a2.141 2.141 0 0 1-.721-.565 2.407 2.407 0 0 1-.436-.831 3.408 3.408 0 0 1-.145-1.006c0-.307.04-.621.12-.945.08-.323.214-.617.4-.881a2.21 2.21 0 0 1 .741-.65c.307-.17.685-.255 1.132-.255.327 0 .627.071.901.215.274.144.488.358.641.646h.01v-.74h.797v4.731c0 .844-.193 1.478-.58 1.899zm-1.083-2.327a1.4 1.4 0 0 0 .476-.461c.121-.189.209-.404.266-.645.057-.24.085-.48.085-.721 0-.227-.027-.45-.08-.67-.054-.221-.139-.419-.256-.596s-.269-.318-.456-.425a1.368 1.368 0 0 0-.682-.16c-.274 0-.508.052-.702.155s-.353.242-.476.415-.214.373-.271.601a2.9 2.9 0 0 0-.085.71c0 .233.023.467.07.7s.127.445.24.635c.114.19.264.344.451.461.188.116.421.175.702.175s.521-.057.718-.174zM91.311 20.333v2.73h.023c.066-.16.16-.295.28-.404.12-.11.254-.2.404-.27.15-.07.307-.122.47-.155s.321-.05.475-.05c.339 0 .623.047.849.14a1.4 1.4 0 0 1 .55.391c.14.166.238.364.294.595.057.229.085.484.085.765v3.399h-.852v-3.499c0-.32-.093-.573-.28-.76s-.443-.28-.77-.28c-.26 0-.484.04-.674.12s-.348.193-.475.34a1.477 1.477 0 0 0-.285.515 2.11 2.11 0 0 0-.095.646v2.919h-.852v-7.141h.853zM98.18 22.302v.75h-1.031v3.212c0 .1.008.18.025.24a.25.25 0 0 0 .095.14.422.422 0 0 0 .195.065c.083.01.192.015.325.015h.391v.75h-.65c-.22 0-.409-.015-.566-.045-.156-.03-.283-.085-.38-.165s-.169-.193-.215-.34a1.962 1.962 0 0 1-.07-.581l-.001-3.291h-.88v-.75h.88v-1.547h.852v1.547h1.03zM56.494 7.25c-.221 0-.397-.062-.528-.185-.131-.124-.196-.325-.196-.605-.233.28-.505.481-.815.605a2.7 2.7 0 0 1-1.005.185c-.233 0-.453-.025-.66-.075s-.389-.133-.545-.25a1.222 1.222 0 0 1-.37-.449 1.5 1.5 0 0 1-.135-.665c0-.293.05-.533.15-.72s.232-.338.396-.455c.163-.116.35-.205.561-.265.21-.06.425-.11.645-.15.233-.046.456-.081.666-.104s.395-.057.555-.1c.16-.044.287-.107.38-.19s.14-.205.14-.365c0-.187-.035-.336-.105-.449s-.16-.2-.27-.261c-.11-.06-.233-.1-.37-.119a2.657 2.657 0 0 0-.405-.03c-.359 0-.659.068-.899.204-.24.137-.37.394-.39.772h-.852c.013-.319.08-.589.2-.809s.28-.397.48-.534c.2-.136.431-.234.691-.294s.534-.09.82-.09c.233 0 .465.017.696.05.23.033.438.102.625.205.187.104.337.248.45.435.114.187.17.43.17.729v2.658c0 .199.012.346.035.439.023.093.102.14.235.14.073 0 .16-.017.26-.05v.662c-.146.086-.35.13-.61.13zm-1.192-2.607a6.61 6.61 0 0 1-.546.091c-.19.022-.383.05-.576.079-.194.03-.368.079-.521.146a.95.95 0 0 0-.376.285c-.097.123-.145.291-.145.505 0 .14.028.258.085.354.057.097.13.176.22.235s.197.104.321.13.249.04.376.04c.28 0 .521-.038.722-.115.2-.076.364-.173.491-.29.127-.116.22-.243.28-.38s.09-.265.09-.385v-.87c-.107.08-.248.138-.421.175zM58.493 5.983c.08.13.184.232.314.31.129.076.276.132.439.165.163.033.331.05.503.05.133 0 .272-.01.419-.03.146-.02.281-.057.404-.109a.769.769 0 0 0 .304-.235.624.624 0 0 0 .12-.395c0-.22-.083-.386-.25-.499s-.375-.205-.625-.275c-.25-.069-.521-.133-.813-.189s-.564-.137-.814-.24-.457-.25-.624-.436-.25-.446-.25-.779c0-.26.058-.483.175-.669.117-.188.267-.339.45-.455s.39-.203.62-.26a2.83 2.83 0 0 1 .685-.085c.293 0 .562.025.809.075s.464.137.655.26c.189.123.341.289.454.498.113.21.18.472.2.784h-.852a.862.862 0 0 0-.13-.413.861.861 0 0 0-.279-.265 1.312 1.312 0 0 0-.375-.145 1.916 1.916 0 0 0-.414-.045c-.126 0-.255.01-.385.03-.13.02-.248.055-.354.104s-.193.117-.26.2a.506.506 0 0 0-.1.325c0 .146.052.268.155.364s.235.177.395.24.339.116.539.16c.2.043.399.088.599.135.213.047.421.104.624.17s.383.155.539.265c.157.11.283.249.38.415.096.167.145.373.145.62 0 .312-.065.573-.195.779-.13.207-.299.373-.509.5a2.116 2.116 0 0 1-.708.265c-.263.05-.524.075-.784.075-.286 0-.56-.03-.819-.09-.26-.058-.49-.157-.69-.294s-.359-.316-.479-.54-.187-.496-.2-.816h.852c.007.186.05.345.13.475zM65.876 2.872c-.213-.181-.5-.271-.86-.271-.307 0-.563.057-.77.17a1.368 1.368 0 0 0-.495.449 1.91 1.91 0 0 0-.265.645c-.054.243-.08.495-.08.755 0 .239.028.473.085.699s.145.428.265.604c.12.177.276.318.47.425s.423.16.69.16c.42 0 .749-.109.985-.329.236-.22.381-.529.435-.929h.87c-.093.64-.332 1.134-.715 1.479-.383.348-.905.521-1.565.521-.394 0-.742-.063-1.045-.19a2.02 2.02 0 0 1-.76-.539c-.203-.233-.356-.512-.459-.835s-.155-.679-.155-1.064c0-.387.05-.748.149-1.085.1-.337.251-.63.455-.88.203-.25.458-.446.764-.59s.664-.215 1.07-.215c.293 0 .568.035.825.105.256.069.483.179.68.325s.358.332.485.555c.127.224.207.489.24.796h-.88c-.065-.327-.205-.581-.419-.761zM71.77 6.81c-.387.294-.874.44-1.46.44-.414 0-.772-.066-1.075-.2a2.105 2.105 0 0 1-.766-.56 2.367 2.367 0 0 1-.465-.859 4.103 4.103 0 0 1-.175-1.09c0-.394.06-.753.18-1.08.12-.326.289-.609.505-.85s.474-.427.771-.56c.297-.134.622-.2.976-.2.46 0 .842.095 1.146.285s.547.432.73.726c.184.293.31.613.38.96s.098.677.085.99h-3.875c-.007.226.02.44.08.644a1.427 1.427 0 0 0 .801.912c.207.093.451.14.731.14.36 0 .655-.083.886-.249.23-.167.382-.42.456-.759h.84c-.115.58-.365 1.017-.751 1.31zm-.202-3.318a1.47 1.47 0 0 0-.311-.466 1.456 1.456 0 0 0-1.047-.425c-.221 0-.419.038-.596.115a1.373 1.373 0 0 0-.456.315 1.49 1.49 0 0 0-.301.465 1.746 1.746 0 0 0-.13.565h2.977a1.755 1.755 0 0 0-.136-.569zM74.231 1.972v.819h.019c.354-.626.914-.939 1.681-.939.34 0 .623.047.85.14a1.4 1.4 0 0 1 .55.391c.14.166.238.364.295.595.057.229.085.484.085.765v3.399h-.852v-3.5c0-.32-.093-.573-.28-.76s-.443-.28-.77-.28c-.26 0-.485.04-.674.12-.19.08-.348.193-.475.34a1.446 1.446 0 0 0-.285.515 2.11 2.11 0 0 0-.095.646v2.919h-.852v-5.17h.803zM82.705 7.14l.002-.699h-.025c-.14.286-.359.493-.659.619-.299.127-.629.19-.988.19-.399 0-.747-.073-1.043-.22a2.147 2.147 0 0 1-.739-.59 2.581 2.581 0 0 1-.444-.86c-.1-.326-.15-.673-.15-1.039s.048-.713.145-1.04c.097-.326.243-.611.439-.854s.442-.437.739-.58.641-.215 1.034-.215c.133 0 .276.014.429.04.153.026.307.072.459.135.153.063.298.146.434.25.137.104.251.232.345.385h.023V0h.852v7.14h-.853zm-3.054-1.836c.063.23.16.435.29.615.13.18.297.322.5.429.204.106.442.16.715.16.287 0 .53-.057.73-.17.2-.113.363-.262.49-.444a1.89 1.89 0 0 0 .275-.625c.057-.232.085-.469.085-.709 0-.253-.03-.498-.09-.734s-.155-.444-.285-.624-.298-.325-.505-.435a1.58 1.58 0 0 0-.75-.165c-.287 0-.53.057-.73.17s-.36.263-.48.449-.207.399-.26.64c-.054.24-.08.486-.08.739 0 .24.032.474.095.704zM88.479 6.81c-.387.294-.874.44-1.46.44-.414 0-.772-.066-1.076-.2a2.11 2.11 0 0 1-.765-.56 2.367 2.367 0 0 1-.465-.859 4.144 4.144 0 0 1-.175-1.09c0-.394.06-.753.18-1.08.12-.326.289-.609.505-.85s.474-.427.771-.56c.297-.134.622-.2.976-.2.46 0 .842.095 1.146.285.303.19.547.432.73.726.183.293.31.613.38.96s.098.677.085.99h-3.875c-.007.226.02.44.08.644.06.202.157.382.29.538.134.156.304.281.511.374s.451.14.731.14c.36 0 .656-.083.886-.249.23-.167.382-.42.456-.759h.84c-.114.58-.364 1.017-.751 1.31zm-.202-3.318a1.47 1.47 0 0 0-.311-.466 1.452 1.452 0 0 0-1.047-.425c-.221 0-.419.038-.597.115a1.373 1.373 0 0 0-.456.315 1.487 1.487 0 0 0-.3.465 1.746 1.746 0 0 0-.13.565h2.977a1.755 1.755 0 0 0-.136-.569zM90.912 1.972v1.09h.019c.205-.42.458-.73.758-.93.3-.2.68-.294 1.14-.28v.898c-.34 0-.63.047-.87.14a1.38 1.38 0 0 0-.58.41 1.715 1.715 0 0 0-.32.655c-.067.257-.1.552-.1.886v2.3h-.852V1.972h.805zM97 0v2.73h.023c.066-.16.16-.295.28-.404.12-.11.254-.2.404-.27.15-.07.307-.122.47-.155s.321-.05.474-.05c.34 0 .623.047.85.14.226.094.409.224.549.391.14.166.238.364.295.595.057.229.085.484.085.765v3.399h-.852V3.642c0-.32-.093-.573-.28-.76s-.443-.28-.77-.28c-.26 0-.485.04-.674.12-.19.08-.348.193-.475.34a1.446 1.446 0 0 0-.285.515 2.13 2.13 0 0 0-.094.645v2.919h-.852V0H97zM105.319 6.81c-.387.294-.874.44-1.46.44-.414 0-.772-.066-1.076-.2a2.11 2.11 0 0 1-.765-.56 2.367 2.367 0 0 1-.465-.859 4.144 4.144 0 0 1-.175-1.09c0-.394.06-.753.18-1.08.12-.326.289-.609.505-.85s.474-.427.771-.56c.297-.134.622-.2.976-.2.46 0 .842.095 1.146.285.303.19.547.432.73.726.183.293.31.613.38.96s.098.677.085.99h-3.875c-.007.226.02.44.08.644.06.202.157.382.29.538.134.156.304.281.511.374s.451.14.731.14c.36 0 .656-.083.886-.249.23-.167.382-.42.456-.759h.84c-.114.58-.364 1.017-.751 1.31zm-.202-3.318a1.47 1.47 0 0 0-.311-.466 1.452 1.452 0 0 0-1.047-.425c-.221 0-.419.038-.597.115a1.373 1.373 0 0 0-.456.315 1.487 1.487 0 0 0-.3.465 1.746 1.746 0 0 0-.13.565h2.977a1.755 1.755 0 0 0-.136-.569zM107.025 1.039V0h.852v1.039h-.852zm.852.932v5.17h-.852v-5.17h.852zM113.029 8.604c-.386.42-.993.63-1.819.63-.24 0-.485-.026-.735-.08s-.477-.14-.68-.26a1.566 1.566 0 0 1-.505-.47 1.327 1.327 0 0 1-.22-.71h.852c.006.153.055.283.145.39s.2.193.33.26.271.115.425.146.3.045.44.045c.28 0 .517-.048.71-.145s.354-.23.48-.4a1.67 1.67 0 0 0 .275-.614c.057-.24.085-.504.085-.79v-.34h-.02a1.435 1.435 0 0 1-.666.705 2.082 2.082 0 0 1-.946.225c-.387 0-.724-.07-1.011-.21a2.141 2.141 0 0 1-.721-.565 2.425 2.425 0 0 1-.436-.831 3.408 3.408 0 0 1-.145-1.006c0-.307.04-.621.12-.945.08-.323.213-.617.401-.881a2.21 2.21 0 0 1 .741-.65c.307-.17.684-.255 1.132-.255.327 0 .627.071.901.215.274.144.487.358.641.646h.01v-.74h.797v4.731c-.001.845-.194 1.479-.581 1.899zm-1.083-2.326a1.4 1.4 0 0 0 .476-.461c.121-.189.209-.404.266-.645.057-.24.085-.48.085-.721 0-.227-.027-.45-.08-.67-.054-.221-.139-.419-.256-.596s-.269-.318-.456-.425-.415-.16-.682-.16c-.274 0-.508.052-.702.155s-.353.242-.476.415a1.746 1.746 0 0 0-.271.601 2.9 2.9 0 0 0-.085.71c0 .233.023.467.07.7.046.233.127.445.241.635.113.19.264.344.451.461.187.116.421.175.702.175s.52-.057.717-.174zM115.69 0v2.73h.023c.066-.16.16-.295.28-.404.12-.11.254-.2.404-.27.15-.07.307-.122.47-.155s.321-.05.474-.05c.34 0 .623.047.85.14.226.094.409.224.549.391.14.166.238.364.295.595.057.229.085.484.085.765v3.399h-.852V3.642c0-.32-.093-.573-.28-.76s-.443-.28-.77-.28c-.26 0-.485.04-.674.12-.19.08-.348.193-.475.34a1.446 1.446 0 0 0-.285.515 2.11 2.11 0 0 0-.095.646v2.919h-.852V0h.853zM122.56 1.969v.75h-1.031v3.212c0 .1.008.18.025.24a.25.25 0 0 0 .095.14.422.422 0 0 0 .195.065c.083.01.192.015.325.015h.391v.75h-.65c-.22 0-.409-.015-.566-.045-.156-.03-.283-.085-.38-.165s-.169-.193-.215-.34a1.962 1.962 0 0 1-.07-.581l-.001-3.291h-.88v-.75h.88V.422h.852v1.547h1.03zM10.919 94.639l.18-.74h-.02c-.254.334-.515.559-.785.675s-.579.175-.925.175c-.327 0-.617-.052-.87-.155-.254-.103-.467-.246-.64-.43s-.303-.404-.39-.665a2.72 2.72 0 0 1-.13-.859c0-.394.065-.785.195-1.175s.317-.741.56-1.055.543-.568.9-.765a2.483 2.483 0 0 1 1.215-.295c.16 0 .323.015.49.045s.325.08.475.15c.15.069.282.163.395.28.113.116.197.261.25.435h.02l.55-2.762h.84l-1.51 7.141h-.8zm-2.414-1.003c.21.247.548.37 1.015.37.32 0 .606-.083.86-.25.253-.166.465-.376.635-.629.17-.253.3-.531.39-.835.09-.303.135-.587.135-.854 0-.387-.112-.706-.335-.959-.223-.253-.545-.38-.965-.38-.34 0-.637.078-.89.235a2.154 2.154 0 0 0-.64.604c-.173.247-.303.52-.39.819-.086.3-.13.593-.13.88 0 .42.105.753.315.999zM14 92.759c0 .2.037.378.11.534.074.156.173.286.3.389a1.48 1.48 0 0 0 .93.324c.38 0 .693-.085.94-.255.246-.17.43-.415.55-.735h.85a2.228 2.228 0 0 1-.32.755 2.037 2.037 0 0 1-.53.541c-.207.145-.437.253-.69.326s-.52.11-.8.11c-.427 0-.781-.065-1.065-.195s-.509-.296-.676-.499c-.167-.204-.284-.427-.351-.67s-.1-.479-.1-.705c0-.493.072-.944.215-1.354a3.38 3.38 0 0 1 .581-1.055c.243-.293.527-.521.85-.68.323-.16.662-.24 1.016-.24.76 0 1.315.2 1.665.601.35.399.525.962.525 1.69 0 .133-.01.26-.03.38-.02.12-.036.217-.05.29h-3.889a3.14 3.14 0 0 0-.031.448zm3.113-1.734c-.037-.177-.103-.334-.2-.471s-.225-.247-.385-.33-.356-.125-.59-.125c-.247 0-.468.038-.665.115a1.64 1.64 0 0 0-.515.315c-.146.133-.27.288-.37.465-.101.177-.18.365-.24.565h3a1.883 1.883 0 0 0-.035-.534zM21.614 90.325a1.3 1.3 0 0 0-.768-.226c-.126 0-.256.01-.389.03-.133.02-.251.055-.354.104s-.188.117-.254.2-.1.191-.1.325c0 .12.038.223.115.31s.18.167.31.24.276.142.439.205c.163.062.328.128.495.194.173.073.341.153.504.24s.308.185.434.295c.126.109.23.239.31.39.08.15.12.325.12.524 0 .287-.063.532-.19.735s-.29.368-.49.494c-.2.127-.425.219-.674.275a3.77 3.77 0 0 1-1.584 0 1.758 1.758 0 0 1-.655-.285 1.393 1.393 0 0 1-.435-.536c-.106-.224-.16-.502-.16-.836h.844a.874.874 0 0 0 .084.476c.07.13.167.232.289.31a1.3 1.3 0 0 0 .429.165c.163.033.334.05.514.05.14 0 .279-.014.418-.04.14-.026.266-.071.379-.135s.205-.145.274-.245c.07-.1.105-.223.105-.369a.472.472 0 0 0-.12-.325 1.223 1.223 0 0 0-.31-.244 2.88 2.88 0 0 0-.434-.205 12.413 12.413 0 0 1-.495-.205c-.173-.066-.341-.14-.504-.22s-.31-.175-.439-.285a1.251 1.251 0 0 1-.31-.385 1.076 1.076 0 0 1-.115-.509c0-.24.055-.453.165-.64.11-.187.255-.342.435-.465s.385-.218.615-.285c.229-.066.464-.1.704-.1s.477.028.709.085c.233.057.441.15.625.28.184.13.332.3.445.51s.17.466.17.766h-.852c.014-.292-.086-.513-.299-.663zM26.993 90.364c-.193-.176-.459-.264-.798-.264-.326 0-.614.073-.863.22s-.459.336-.628.569c-.17.233-.298.495-.384.784-.086.29-.13.574-.13.854 0 .2.021.39.065.569.043.18.115.336.215.47.1.133.231.239.394.319s.365.12.604.12c.366 0 .679-.097.938-.288.259-.193.449-.448.569-.767h.849c-.153.586-.433 1.031-.839 1.338-.406.306-.913.459-1.519.459-.706 0-1.237-.193-1.594-.58-.356-.386-.535-.933-.535-1.64 0-.413.062-.81.185-1.189.123-.38.306-.718.549-1.015.243-.296.543-.533.899-.71a2.73 2.73 0 0 1 1.224-.265c.586 0 1.051.142 1.395.425.343.283.524.728.544 1.333h-.852c.002-.318-.095-.566-.288-.742zM29.399 92.759c0 .2.037.378.11.534.074.156.173.286.3.389a1.48 1.48 0 0 0 .93.324c.38 0 .693-.085.94-.255.246-.17.43-.415.55-.735h.85a2.228 2.228 0 0 1-.32.755 2.037 2.037 0 0 1-.53.541c-.207.145-.437.253-.69.326s-.52.11-.8.11c-.427 0-.781-.065-1.065-.195s-.509-.296-.676-.499c-.167-.204-.284-.427-.351-.67s-.1-.479-.1-.705c0-.493.072-.944.215-1.354a3.38 3.38 0 0 1 .581-1.055c.243-.293.527-.521.85-.68.323-.16.662-.24 1.016-.24.76 0 1.315.2 1.665.601.351.399.525.963.525 1.69 0 .133-.01.26-.03.38-.02.12-.036.217-.05.29H29.43c-.02.146-.031.295-.031.448zm3.114-1.734c-.037-.177-.103-.334-.2-.471s-.225-.247-.385-.33-.356-.125-.59-.125c-.247 0-.468.038-.665.115a1.64 1.64 0 0 0-.515.315c-.146.133-.27.288-.37.465-.101.177-.18.365-.24.565h3a1.959 1.959 0 0 0-.035-.534zM35.625 89.47l-.16.779h.02c.213-.3.483-.524.81-.675.327-.149.67-.225 1.03-.225.487 0 .849.106 1.086.32.237.213.355.55.355 1.01 0 .113-.014.26-.04.439-.027.181-.063.37-.11.57l-.631 2.949h-.851l.66-3.02c.007-.053.017-.114.03-.185l.04-.221c.013-.076.025-.149.035-.22.01-.069.015-.128.015-.175 0-.246-.087-.428-.26-.545a1.128 1.128 0 0 0-.64-.175c-.233 0-.465.057-.695.17s-.425.257-.585.43a1.424 1.424 0 0 0-.36.485 3.525 3.525 0 0 0-.21.595l-.6 2.859h-.84l1.08-5.169h.821zM42.517 89.467l-.16.75h-1.03l-.64 3.039-.02.17c-.007.054-.01.11-.01.17 0 .134.052.225.155.275.103.05.222.074.355.074.086 0 .17-.008.25-.024.08-.017.16-.039.24-.065l-.15.783c-.1.013-.2.023-.3.033-.1.009-.2.014-.3.014-.16 0-.31-.012-.45-.035-.14-.023-.262-.066-.365-.13s-.187-.148-.25-.255-.095-.243-.095-.41c0-.073.005-.143.015-.21l.035-.22.68-3.209h-.87l.16-.75h.87l.32-1.531h.85l-.32 1.531h1.03zM1.88 43.136l-.19.77.02.021c.22-.28.485-.502.795-.665s.645-.245 1.005-.245c.327 0 .606.07.84.21.233.141.387.38.46.72.2-.279.458-.505.775-.675.316-.17.648-.255.995-.255.18 0 .356.021.53.065.173.043.328.109.465.199.137.09.246.209.326.355s.12.326.12.54c0 .153-.017.326-.05.52s-.067.363-.101.51l-.654 3.1H6.37l.72-3.279c.02-.08.038-.175.055-.285a1.83 1.83 0 0 0 .025-.274.64.64 0 0 0-.225-.5.815.815 0 0 0-.565-.2c-.12 0-.242.021-.365.06a2.065 2.065 0 0 0-.354.155c-.114.063-.22.139-.32.226-.1.086-.187.176-.26.27-.14.153-.244.33-.31.529-.067.2-.124.41-.17.631l-.57 2.669H3.18l.62-2.949c.047-.2.085-.387.115-.56.03-.174.045-.29.045-.351 0-.213-.062-.38-.185-.5s-.302-.18-.535-.18-.465.066-.695.2c-.23.133-.422.286-.575.46-.18.173-.303.348-.37.524a4.65 4.65 0 0 0-.18.645l-.58 2.71H0l1.09-5.169h.79zM9.46 46.425c0 .2.037.378.11.534.074.156.173.286.3.389a1.48 1.48 0 0 0 .93.324c.38 0 .693-.085.94-.255.246-.17.43-.415.55-.735h.85a2.228 2.228 0 0 1-.32.755 2.037 2.037 0 0 1-.53.541c-.207.145-.437.253-.69.326s-.52.11-.8.11c-.427 0-.781-.065-1.065-.195s-.509-.296-.676-.499c-.167-.204-.284-.427-.351-.67s-.1-.479-.1-.705c0-.493.072-.944.215-1.354a3.38 3.38 0 0 1 .581-1.055c.243-.293.527-.521.85-.68.323-.16.662-.24 1.016-.24.76 0 1.315.2 1.665.601.351.399.525.963.525 1.69 0 .133-.01.26-.03.38-.02.12-.036.217-.05.29H9.491a3.16 3.16 0 0 0-.031.448zm3.113-1.733c-.037-.177-.103-.334-.2-.471s-.225-.247-.385-.33-.356-.125-.59-.125c-.247 0-.468.038-.665.115a1.64 1.64 0 0 0-.515.315c-.146.133-.27.288-.37.465-.101.177-.18.365-.24.565h3a1.88 1.88 0 0 0-.035-.534zM14.616 43.951c.137-.209.305-.385.505-.524.2-.14.427-.243.68-.311.253-.066.517-.1.79-.1.253 0 .493.021.72.06.227.04.427.11.601.21.173.101.312.235.416.405s.155.385.155.645c0 .146-.019.305-.055.475s-.072.324-.105.465l-.33 1.408c-.02.107-.048.227-.085.36-.037.133-.055.26-.055.38 0 .119.023.203.07.249a.24.24 0 0 0 .18.07c.04 0 .085-.009.135-.024l.135-.046-.13.632a1.793 1.793 0 0 1-.52.11c-.233 0-.41-.063-.53-.19-.12-.127-.167-.305-.14-.531l-.02-.021c-.18.241-.403.425-.67.552s-.62.19-1.06.19c-.22 0-.425-.025-.615-.075s-.355-.133-.495-.25a1.255 1.255 0 0 1-.335-.449 1.634 1.634 0 0 1-.125-.675c0-.38.082-.677.245-.89.164-.214.372-.375.625-.485.253-.109.533-.185.84-.225s.603-.073.89-.101c.227-.02.421-.041.584-.064a1.33 1.33 0 0 0 .405-.115.507.507 0 0 0 .235-.229.93.93 0 0 0 .075-.41c0-.14-.034-.253-.1-.34s-.15-.155-.25-.205-.212-.085-.335-.104a2.118 2.118 0 0 0-.355-.03c-.16 0-.318.017-.475.05s-.298.089-.425.165a1.125 1.125 0 0 0-.32.29.97.97 0 0 0-.17.425h-.85c.039-.288.127-.536.264-.747zm.245 3.542c.189.12.404.18.644.18.672 0 1.155-.227 1.448-.68.14-.193.234-.403.285-.63.05-.227.104-.461.165-.7h-.02c-.12.087-.271.148-.454.185a5.766 5.766 0 0 1-.584.085 15.14 15.14 0 0 0-.624.075 2.42 2.42 0 0 0-.564.145 1.04 1.04 0 0 0-.409.285c-.107.124-.164.295-.17.516a.592.592 0 0 0 .283.539zM20.825 43.136l-.16.779h.02c.213-.3.483-.524.81-.675.327-.149.67-.225 1.03-.225.487 0 .849.106 1.086.32.237.213.355.55.355 1.01 0 .113-.014.26-.04.439-.027.181-.063.37-.11.57l-.631 2.949h-.851l.66-3.02c.007-.053.017-.114.03-.185l.04-.221c.013-.076.025-.149.035-.22.01-.069.015-.128.015-.175 0-.246-.087-.428-.26-.545a1.128 1.128 0 0 0-.64-.175c-.233 0-.465.057-.695.17s-.425.257-.585.43a1.424 1.424 0 0 0-.36.485 3.525 3.525 0 0 0-.21.595l-.6 2.859h-.84l1.08-5.169h.821zM29.507 41.165l-1.5 7.141h-.84l1.49-7.141h.85zM31.256 43.135l-1.08 5.17h-.84l1.07-5.17h.85zm-.659-.931.22-1.039h.86l-.22 1.039h-.86zM33.405 43.136l-.16.779h.02c.213-.3.483-.524.81-.675.327-.149.67-.225 1.03-.225.487 0 .849.106 1.085.32.237.213.356.55.356 1.01 0 .113-.013.26-.04.439-.027.181-.063.37-.11.57l-.631 2.949h-.85l.66-3.02c.007-.053.017-.114.03-.185a7.534 7.534 0 0 0 .075-.441c.01-.069.015-.128.015-.175 0-.246-.086-.428-.26-.545a1.125 1.125 0 0 0-.64-.175c-.233 0-.465.057-.695.17s-.425.257-.585.43a1.424 1.424 0 0 0-.36.485 3.615 3.615 0 0 0-.21.595l-.6 2.859h-.84l1.08-5.169h.82zM38.01 46.425c0 .2.037.378.11.534.074.156.173.286.3.389a1.48 1.48 0 0 0 .93.324c.38 0 .693-.085.94-.255.246-.17.43-.415.55-.735h.85a2.228 2.228 0 0 1-.32.755 2.037 2.037 0 0 1-.53.541c-.207.145-.437.253-.69.326s-.52.11-.8.11c-.427 0-.781-.065-1.065-.195s-.509-.296-.676-.499c-.167-.204-.284-.427-.351-.67s-.1-.479-.1-.705c0-.493.072-.944.215-1.354a3.38 3.38 0 0 1 .581-1.055c.243-.293.527-.521.85-.68.323-.16.662-.24 1.016-.24.76 0 1.315.2 1.665.601.351.399.525.963.525 1.69 0 .133-.01.26-.03.38-.02.12-.036.217-.05.29h-3.889a3.16 3.16 0 0 0-.031.448zm3.113-1.733c-.037-.177-.103-.334-.2-.471s-.225-.247-.385-.33-.356-.125-.59-.125c-.247 0-.468.038-.665.115a1.64 1.64 0 0 0-.515.315c-.146.133-.27.288-.37.465-.101.177-.18.365-.24.565h3a1.918 1.918 0 0 0-.035-.534zM14.017 2.786c.137-.209.305-.385.505-.524.2-.14.427-.243.68-.311.253-.066.517-.1.79-.1.253 0 .493.021.72.06.227.04.427.11.601.21.173.101.312.235.416.405s.155.385.155.645c0 .146-.019.305-.055.475s-.072.324-.105.465l-.33 1.408c-.02.107-.048.227-.085.36-.037.133-.055.26-.055.38 0 .119.023.203.07.249a.24.24 0 0 0 .18.07c.04 0 .085-.009.135-.024l.135-.046-.13.632a1.793 1.793 0 0 1-.52.11c-.233 0-.41-.063-.53-.19-.12-.127-.167-.305-.14-.531l-.02-.021c-.18.241-.403.425-.67.552s-.62.19-1.06.19c-.22 0-.425-.025-.615-.075s-.355-.133-.495-.25a1.255 1.255 0 0 1-.335-.449 1.634 1.634 0 0 1-.125-.675c0-.38.082-.677.245-.89.164-.214.372-.375.625-.485.253-.109.533-.185.84-.225s.603-.073.89-.101c.227-.02.421-.041.584-.064a1.33 1.33 0 0 0 .405-.115.507.507 0 0 0 .235-.229.93.93 0 0 0 .075-.41c0-.14-.034-.253-.1-.34s-.15-.155-.25-.205-.212-.085-.335-.104a2.118 2.118 0 0 0-.355-.03c-.16 0-.318.017-.475.05s-.298.089-.425.165a1.125 1.125 0 0 0-.32.29.97.97 0 0 0-.17.425h-.85c.039-.288.127-.536.264-.747zm.245 3.542c.189.12.404.18.644.18.672 0 1.155-.227 1.448-.68.14-.193.234-.403.285-.63.05-.227.104-.461.165-.7h-.02c-.12.087-.271.148-.454.185a5.766 5.766 0 0 1-.584.085 15.14 15.14 0 0 0-.624.075 2.42 2.42 0 0 0-.564.145 1.04 1.04 0 0 0-.409.285c-.107.124-.164.295-.17.516a.59.59 0 0 0 .283.539zM21.615 2.827a1.298 1.298 0 0 0-.768-.226c-.126 0-.256.01-.389.03-.133.02-.251.055-.354.104s-.188.117-.254.2-.1.191-.1.325c0 .12.038.223.115.31s.18.167.31.24.276.142.439.205c.163.062.328.128.495.194.173.073.341.153.504.24s.308.185.435.295c.126.109.23.239.31.39.08.15.12.325.12.524 0 .287-.063.532-.19.735s-.29.368-.49.494c-.2.127-.425.219-.675.275-.25.057-.501.085-.754.085-.3 0-.576-.028-.83-.085a1.754 1.754 0 0 1-.654-.285 1.385 1.385 0 0 1-.435-.536c-.107-.224-.16-.502-.16-.836h.844a.856.856 0 0 0 .085.476c.069.13.166.232.289.31a1.3 1.3 0 0 0 .429.165c.163.033.334.05.513.05.14 0 .279-.014.418-.04s.266-.071.379-.135.204-.145.274-.245a.634.634 0 0 0 .104-.369.472.472 0 0 0-.12-.325 1.206 1.206 0 0 0-.31-.244 2.848 2.848 0 0 0-.435-.205 11.792 11.792 0 0 1-.494-.205c-.173-.066-.341-.14-.504-.22s-.31-.175-.439-.285a1.251 1.251 0 0 1-.31-.385 1.076 1.076 0 0 1-.115-.509c0-.24.055-.453.165-.64.109-.187.254-.342.435-.465a2.15 2.15 0 0 1 .614-.285c.23-.066.465-.1.705-.1s.477.028.709.085c.233.057.441.15.625.28s.332.3.445.51.17.466.17.766h-.852c.013-.292-.086-.514-.299-.663zM26.994 2.866c-.193-.177-.459-.265-.798-.265-.326 0-.614.073-.863.22s-.459.336-.629.569a2.603 2.603 0 0 0-.384.784c-.087.29-.13.574-.13.854 0 .2.021.39.065.569.043.18.115.336.214.47.1.133.231.239.395.319s.365.12.604.12c.366 0 .679-.097.938-.288.26-.193.449-.448.569-.767h.849c-.153.586-.433 1.031-.839 1.338-.406.306-.913.459-1.519.459-.707 0-1.238-.193-1.594-.58-.356-.386-.535-.933-.535-1.64 0-.413.062-.81.185-1.189.124-.38.307-.718.55-1.015.243-.296.543-.533.899-.71a2.731 2.731 0 0 1 1.225-.265c.586 0 1.051.142 1.394.425.343.283.525.728.545 1.333h-.852c0-.317-.096-.565-.289-.741zM29.4 5.26c0 .2.037.378.11.534s.173.286.3.389a1.476 1.476 0 0 0 .93.324c.38 0 .693-.085.939-.255a1.5 1.5 0 0 0 .55-.735h.85a2.228 2.228 0 0 1-.32.755 2.037 2.037 0 0 1-.53.541 2.306 2.306 0 0 1-.69.326c-.253.073-.52.11-.8.11-.427 0-.782-.065-1.065-.195s-.509-.296-.676-.499c-.167-.204-.284-.427-.351-.67s-.1-.479-.1-.705c0-.493.072-.944.215-1.354.143-.41.336-.762.58-1.055.243-.293.526-.521.85-.68.324-.16.662-.24 1.015-.24.761 0 1.315.2 1.666.601.35.399.525.963.525 1.69 0 .133-.01.26-.03.38l-.05.29h-3.889a3.476 3.476 0 0 0-.029.448zm3.113-1.733c-.037-.177-.103-.334-.2-.471s-.225-.247-.385-.33a1.268 1.268 0 0 0-.59-.125c-.247 0-.468.038-.665.115a1.64 1.64 0 0 0-.515.315c-.146.133-.27.288-.37.465-.1.177-.18.365-.24.565h3a1.88 1.88 0 0 0-.035-.534zM35.625 1.971l-.16.779h.02c.213-.3.483-.524.81-.675.327-.149.67-.225 1.03-.225.487 0 .849.106 1.086.32.237.213.355.55.355 1.01 0 .113-.014.26-.04.439-.027.181-.063.37-.11.57l-.631 2.951h-.851l.66-3.02c.007-.053.017-.114.03-.185l.04-.221c.013-.076.025-.149.035-.22.01-.069.015-.128.015-.175 0-.246-.087-.428-.26-.545a1.128 1.128 0 0 0-.64-.175c-.233 0-.465.057-.695.17s-.425.257-.585.43a1.424 1.424 0 0 0-.36.485 3.525 3.525 0 0 0-.21.595l-.6 2.859h-.84l1.08-5.169h.821zM42.517 1.968l-.16.75h-1.03l-.64 3.039-.02.17c-.007.054-.01.11-.01.17 0 .134.052.225.155.275.104.05.222.074.355.074.086 0 .17-.008.25-.024s.16-.039.24-.065l-.15.783c-.1.013-.2.023-.3.033-.1.009-.2.014-.3.014-.16 0-.31-.012-.45-.035-.14-.023-.262-.066-.365-.13s-.187-.148-.25-.255-.095-.243-.095-.41c0-.073.005-.143.015-.21.01-.066.021-.14.035-.22l.68-3.209h-.87l.16-.75h.87l.32-1.531h.85l-.32 1.531h1.03z"/><path opacity=".7" d="m317.878 42.144 2.831 1.024c-1.333-1.53-2.593-3.998-3.331-5.987-.738 1.989-1.998 4.458-3.331 5.987l2.831-1.024v18.144l-2.831-1.024c1.333 1.53 2.593 3.998 3.331 5.987.738-1.989 1.998-4.458 3.331-5.987l-2.831 1.024V42.144z"/><path d="M324.289 49.044h1.09l1.24 1.811 1.29-1.811h1.02l-1.78 2.381 2 2.791h-1.09l-1.44-2.141-1.44 2.141h-1.03l1.94-2.721-1.8-2.451zM332.579 51.036v.797h-2.89v-.797h2.89zM334.521 47.075v2.73h.023c.066-.16.16-.295.28-.404.12-.11.254-.2.404-.27s.307-.122.47-.155.321-.05.474-.05c.34 0 .623.047.85.14.226.093.409.223.549.39.14.167.238.365.295.595s.085.485.085.765v3.399h-.852v-3.499c0-.32-.093-.573-.28-.76-.187-.187-.443-.28-.77-.28-.26 0-.485.04-.674.12-.19.08-.348.193-.475.34a1.446 1.446 0 0 0-.285.515 2.107 2.107 0 0 0-.095.645v2.919h-.852v-7.141h.853zM342.84 53.885c-.387.293-.874.44-1.46.44-.414 0-.772-.066-1.075-.2a2.105 2.105 0 0 1-.766-.56 2.363 2.363 0 0 1-.465-.86 4.096 4.096 0 0 1-.175-1.089c0-.394.06-.753.18-1.08a2.61 2.61 0 0 1 .505-.85 2.29 2.29 0 0 1 .771-.56c.297-.134.622-.2.976-.2.46 0 .842.095 1.146.285s.547.432.73.725.31.614.38.96c.07.347.098.677.085.99h-3.875c-.007.226.02.44.08.644a1.427 1.427 0 0 0 .801.912c.207.093.451.14.731.14.36 0 .655-.083.886-.25.23-.166.382-.419.456-.758h.84c-.114.581-.364 1.018-.751 1.311zm-.202-3.318a1.465 1.465 0 0 0-.311-.465 1.456 1.456 0 0 0-1.047-.425c-.221 0-.419.039-.596.115-.177.077-.329.182-.456.315s-.228.289-.301.465a1.746 1.746 0 0 0-.13.565h2.977a1.761 1.761 0 0 0-.136-.57zM344.546 48.114v-1.039h.852v1.039h-.852zm.852.932v5.17h-.852v-5.17h.852zM350.55 55.679c-.387.42-.993.63-1.819.63-.24 0-.485-.027-.735-.08s-.477-.14-.68-.26-.371-.276-.505-.47a1.344 1.344 0 0 1-.22-.71h.852a.632.632 0 0 0 .145.39c.09.107.2.193.33.26.131.066.272.115.426.145.153.03.3.045.439.045.28 0 .518-.048.711-.145s.354-.23.479-.4c.127-.17.219-.375.275-.615s.085-.503.085-.79v-.34h-.02c-.147.32-.369.555-.666.705s-.613.225-.947.225c-.387 0-.724-.07-1.011-.21s-.527-.329-.721-.565a2.426 2.426 0 0 1-.437-.831 3.451 3.451 0 0 1-.145-1.006c0-.307.04-.622.12-.946a2.59 2.59 0 0 1 .4-.88c.187-.264.435-.48.741-.65.307-.17.685-.255 1.132-.255.327 0 .628.072.901.215.273.144.487.359.641.646h.01v-.74h.797v4.731c.002.847-.191 1.481-.578 1.901zm-1.083-2.325c.197-.117.356-.271.476-.46.121-.19.209-.405.267-.645.057-.24.085-.48.085-.721 0-.227-.027-.45-.08-.67-.054-.22-.139-.418-.256-.595s-.27-.319-.456-.425a1.368 1.368 0 0 0-.682-.16c-.274 0-.509.052-.702.155s-.353.242-.477.415a1.797 1.797 0 0 0-.271.6 2.9 2.9 0 0 0-.085.71c0 .233.023.467.07.7s.127.445.24.635.264.343.451.46c.188.116.422.175.702.175s.521-.058.718-.174zM353.21 47.075v2.73h.023c.066-.16.16-.295.28-.404.12-.11.255-.2.404-.27s.307-.122.47-.155.321-.05.475-.05c.34 0 .623.047.849.14.227.093.409.223.55.39.14.167.238.365.295.595s.084.485.084.765v3.399h-.852v-3.499c0-.32-.093-.573-.279-.76-.187-.187-.443-.28-.77-.28-.26 0-.484.04-.674.12-.19.08-.349.193-.476.34a1.444 1.444 0 0 0-.284.515 2.107 2.107 0 0 0-.096.645v2.919h-.852v-7.141h.853zM360.08 49.044v.75h-1.031v3.212c0 .1.009.18.025.24s.049.107.096.14a.418.418 0 0 0 .195.065c.083.01.191.015.324.015h.391v.75h-.65c-.22 0-.408-.015-.565-.045-.156-.03-.283-.085-.38-.165s-.169-.193-.215-.34a1.955 1.955 0 0 1-.07-.58l-.002-3.292h-.879v-.75h.879v-1.547h.852v1.547h1.03z"/></svg>