<svg version="1.0" xmlns="http://www.w3.org/2000/svg" width="1288" height="1706.667" viewBox="0 0 966 1280"><path d="M415 47.7c-48.3 2.9-95.2 13.8-134.6 31.3-49.9 22.1-94.6 57.7-127.4 101.5C118.4 226.6 98.5 280 91.8 344c-1.6 16-1.6 62.1 0 76.5 6.5 56.5 23.1 102.8 52.5 146.8 38.8 58.1 96.4 104.6 169.8 137C338.2 715 346 717.7 497 768.5c69.7 23.4 85.3 29.2 113.3 42.2 32.5 15 54.9 29.4 72.3 46.8 20.8 20.6 31.4 40 37.6 68.8 3 13.8 3.3 48.3.5 62.1-5.6 27.4-17.3 50.3-36.2 70.3-37.2 39.6-88.3 59.3-153.5 59.3-72.7 0-136.2-25.5-198-79.6-51.9-45.3-101.8-115.9-141-199.3-9.8-20.9-23.9-53.7-30.5-71.4l-4.8-12.7H58.3l-2.2 2.3-2.2 2.4 7.6 145.9c14.4 279.1 15.5 299.9 16 301.1.3 1 9.9 1.3 43.4 1.3 23.6 0 43.2-.4 43.5-.8.2-.4 1-4.6 1.6-9.2 3.2-24.6 13.9-48.4 25.7-57.8 8.7-6.8 11.7-7.7 24.8-7.6 18.1.1 30.1 3.8 84 25.9 63.1 25.8 128.5 44.6 179.8 51.6 19.4 2.6 68.4 3.7 90.4 2 92.5-7.3 167.4-39.7 228.7-99.1 61.9-60 95.3-133.7 102.7-227.1 1.5-18.5.6-64.8-1.6-83.4-9.4-81-39-145.8-91-199.4-42.1-43.4-97.4-78.2-167.7-105.7-21.2-8.3-30.8-11.5-126.8-41.9-99-31.4-105.3-33.5-122.4-40.7-35.2-14.7-61.8-31.9-84.1-54.3-22-22-34.5-44.7-38.5-69.7-2-12.1-.8-34.9 2.4-47.1 5-19.5 15.5-37.3 30.4-52.2 26.2-25.9 59.2-41.3 103.7-48.1 9.6-1.5 17.6-1.9 40.5-1.9 25.3 0 29.9.3 41.3 2.3 77.4 13.9 141 59.2 200 142.5 20.3 28.5 35.9 55 56.8 96.2l15.7 31 38.9.3 38.9.2 2.8-2.9 2.8-2.9-7.7-146.4c-4.2-80.4-8.4-160.7-9.3-178.3l-1.7-32-38 .3c-20.9.2-38.3.7-38.6 1-.3.4-1.4 3.8-2.4 7.7-4.4 17.3-13.3 33.7-22.2 41.4-10.6 9-20.8 11.5-36 8.7-5.4-1-11.8-2.2-14.3-2.6-2.5-.5-12.8-4.6-23-9.3C590.2 70.9 524.9 52.6 470.5 48c-11.1-.9-42.6-1.1-55.5-.3z" fill="#333"/></svg>